<svg class='footer-svg' width="234" height="78" viewBox="0 0 234 78" fill="none" xmlns="http://www.w3.org/2000/svg">
<path d="M19.456 57.504C16.144 57.504 13.168 56.928 10.528 55.776C7.936 54.576 5.896 52.944 4.408 50.88C2.92 48.768 2.152 46.344 2.104 43.608H9.08801C9.328 45.96 10.288 47.952 11.968 49.584C13.696 51.168 16.192 51.96 19.456 51.96C22.576 51.96 25.024 51.192 26.8 49.656C28.624 48.072 29.536 46.056 29.536 43.608C29.536 41.688 29.008 40.128 27.952 38.928C26.896 37.728 25.576 36.816 23.992 36.192C22.408 35.568 20.272 34.896 17.584 34.176C14.272 33.312 11.608 32.448 9.592 31.584C7.624 30.72 5.92 29.376 4.48 27.552C3.088 25.68 2.392 23.184 2.392 20.064C2.392 17.328 3.088 14.904 4.48 12.792C5.872 10.68 7.816 9.04799 10.312 7.89599C12.856 6.74399 15.76 6.16799 19.024 6.16799C23.728 6.16799 27.568 7.34399 30.544 9.696C33.568 12.048 35.272 15.168 35.656 19.056H28.456C28.216 17.136 27.208 15.456 25.432 14.016C23.656 12.528 21.304 11.784 18.376 11.784C15.64 11.784 13.408 12.504 11.68 13.944C9.95201 15.336 9.08801 17.304 9.08801 19.848C9.08801 21.672 9.592 23.16 10.6 24.312C11.656 25.464 12.928 26.352 14.416 26.976C15.952 27.552 18.088 28.224 20.824 28.992C24.136 29.904 26.8 30.816 28.816 31.728C30.832 32.592 32.56 33.96 34 35.832C35.44 37.656 36.16 40.152 36.16 43.32C36.16 45.768 35.512 48.072 34.216 50.232C32.92 52.392 31 54.144 28.456 55.488C25.912 56.832 22.912 57.504 19.456 57.504Z" />
<path d="M43.3538 37.128C43.3538 33.096 44.1698 29.568 45.8018 26.544C47.4338 23.472 49.6658 21.096 52.4978 19.416C55.3778 17.736 58.5698 16.896 62.0738 16.896C65.5298 16.896 68.5298 17.64 71.0738 19.128C73.6178 20.616 75.5138 22.488 76.7618 24.744V17.544H83.3858V57H76.7618V49.656C75.4658 51.96 73.5218 53.88 70.9298 55.416C68.3858 56.904 65.4098 57.648 62.0018 57.648C58.4978 57.648 55.3298 56.784 52.4978 55.056C49.6658 53.328 47.4338 50.904 45.8018 47.784C44.1698 44.664 43.3538 41.112 43.3538 37.128ZM76.7618 37.2C76.7618 34.224 76.1618 31.632 74.9618 29.424C73.7618 27.216 72.1298 25.536 70.0658 24.384C68.0498 23.184 65.8178 22.584 63.3698 22.584C60.9218 22.584 58.6898 23.16 56.6738 24.312C54.6578 25.464 53.0498 27.144 51.8498 29.352C50.6498 31.56 50.0498 34.152 50.0498 37.128C50.0498 40.152 50.6498 42.792 51.8498 45.048C53.0498 47.256 54.6578 48.96 56.6738 50.16C58.6898 51.312 60.9218 51.888 63.3698 51.888C65.8178 51.888 68.0498 51.312 70.0658 50.16C72.1298 48.96 73.7618 47.256 74.9618 45.048C76.1618 42.792 76.7618 40.176 76.7618 37.2Z" />
<path d="M128.442 17.544L104.682 75.576H97.9141L105.69 56.568L89.7781 17.544H97.0501L109.434 49.512L121.674 17.544H128.442Z"/>
<path d="M192.888 6.81599V57H186.336V34.248H160.776V57H154.224V6.81599H160.776V28.848H186.336V6.81599H192.888Z" />
<path d="M207.459 11.136C206.211 11.136 205.155 10.704 204.291 9.83999C203.427 8.97599 202.995 7.91999 202.995 6.67199C202.995 5.42399 203.427 4.36799 204.291 3.50399C205.155 2.63999 206.211 2.20799 207.459 2.20799C208.659 2.20799 209.667 2.63999 210.483 3.50399C211.347 4.36799 211.779 5.42399 211.779 6.67199C211.779 7.91999 211.347 8.97599 210.483 9.83999C209.667 10.704 208.659 11.136 207.459 11.136ZM210.627 17.544V57H204.075V17.544H210.627Z" />
<path d="M230.29 6.81599L229.498 42.816H224.026L223.234 6.81599H230.29ZM227.05 57.432C225.802 57.432 224.746 57 223.882 56.136C223.018 55.272 222.586 54.216 222.586 52.968C222.586 51.72 223.018 50.664 223.882 49.8C224.746 48.936 225.802 48.504 227.05 48.504C228.25 48.504 229.258 48.936 230.074 49.8C230.938 50.664 231.37 51.72 231.37 52.968C231.37 54.216 230.938 55.272 230.074 56.136C229.258 57 228.25 57.432 227.05 57.432Z" />
<path fill-rule="evenodd" clip-rule="evenodd" d="M9.70783 57.6002L9.68775 57.5909C6.82288 56.2646 4.49827 54.4252 2.78565 52.0496L2.77929 52.0408L2.77303 52.0319C1.04041 49.5727 0.158893 46.7545 0.104306 43.6431L0.0686035 41.608H10.8943L11.0777 43.405C11.2694 45.2839 12.0143 46.8318 13.3402 48.1286C14.5769 49.2505 16.5118 49.96 19.456 49.96C22.2549 49.96 24.1833 49.2744 25.4908 48.144C26.8693 46.946 27.536 45.4845 27.536 43.608C27.536 42.0717 27.1233 41.0137 26.4506 40.2492C25.6178 39.3029 24.5674 38.5682 23.259 38.0528C21.7765 37.4688 19.7242 36.8199 17.0728 36.1096C13.7142 35.2332 10.9465 34.3404 8.80416 33.4223L8.79607 33.4188L8.78802 33.4153C6.49612 32.4091 4.53627 30.8509 2.91023 28.7913L2.89232 28.7686L2.87507 28.7454C1.1523 26.4286 0.391999 23.4702 0.391999 20.064C0.391999 16.9701 1.1851 14.1569 2.81008 11.6914C4.42498 9.24117 6.66985 7.37424 9.47388 6.08007L9.48042 6.07705L9.48698 6.07409C12.3303 4.78654 15.5231 4.16799 19.024 4.16799C24.0644 4.16799 28.3719 5.43265 31.778 8.12208C35.2407 10.8177 37.2099 14.4405 37.6463 18.8594L37.8633 21.056H26.6904L26.4714 19.3041C26.3069 17.988 25.6252 16.7474 24.1724 15.5695L24.1599 15.5594L24.1476 15.549C22.8183 14.4353 20.9614 13.784 18.376 13.784C16.0028 13.784 14.2557 14.401 12.9604 15.4804L12.9476 15.4911L12.9347 15.5015C11.7505 16.4554 11.088 17.8094 11.088 19.848C11.088 21.2742 11.4692 22.2598 12.0908 22.9785C12.9339 23.8932 13.9478 24.6055 15.1552 25.1172C16.6105 25.6609 18.6703 26.3101 21.3598 27.0651C24.7123 27.9884 27.4783 28.9294 29.6224 29.8977C31.965 30.9055 33.9514 32.4916 35.5777 34.6027C37.3768 36.8874 38.16 39.8693 38.16 43.32C38.16 46.1414 37.4078 48.7996 35.931 51.261C34.4216 53.7766 32.2103 55.7666 29.3902 57.2564C26.5058 58.7802 23.1725 59.504 19.456 59.504C15.9097 59.504 12.6555 58.8865 9.72811 57.6091L9.70783 57.6002ZM34 35.832C32.56 33.96 30.832 32.592 28.816 31.728C26.8 30.816 24.136 29.904 20.824 28.992C18.088 28.224 15.952 27.552 14.416 26.976C12.928 26.352 11.656 25.464 10.6 24.312C9.592 23.16 9.088 21.672 9.088 19.848C9.088 17.304 9.952 15.336 11.68 13.944C13.408 12.504 15.64 11.784 18.376 11.784C21.304 11.784 23.656 12.528 25.432 14.016C27.208 15.456 28.216 17.136 28.456 19.056H35.656C35.5878 18.3651 35.4778 17.6984 35.3262 17.056C34.6247 14.0834 33.0306 11.63 30.544 9.696C27.568 7.34399 23.728 6.16799 19.024 6.16799C15.76 6.16799 12.856 6.74399 10.312 7.89599C7.816 9.04799 5.872 10.68 4.48 12.792C3.088 14.904 2.392 17.328 2.392 20.064C2.392 23.184 3.088 25.68 4.48 27.552C5.92 29.376 7.624 30.72 9.592 31.584C11.608 32.448 14.272 33.312 17.584 34.176C20.272 34.896 22.408 35.568 23.992 36.192C25.576 36.816 26.896 37.728 27.952 38.928C29.008 40.128 29.536 41.688 29.536 43.608C29.536 46.056 28.624 48.072 26.8 49.656C25.024 51.192 22.576 51.96 19.456 51.96C16.192 51.96 13.696 51.168 11.968 49.584C10.288 47.952 9.328 45.96 9.088 43.608H2.104C2.11604 44.2943 2.17338 44.961 2.27603 45.608C2.58259 47.5404 3.29325 49.2978 4.408 50.88C5.896 52.944 7.936 54.576 10.528 55.776C13.168 56.928 16.144 57.504 19.456 57.504C22.912 57.504 25.912 56.832 28.456 55.488C31 54.144 32.92 52.392 34.216 50.232C35.512 48.072 36.16 45.768 36.16 43.32C36.16 40.152 35.44 37.656 34 35.832ZM51.4837 17.6921L51.4901 17.6884C54.6918 15.8208 58.2345 14.896 62.0738 14.896C65.8229 14.896 69.1839 15.7056 72.0836 17.4016C73.0534 17.9689 73.9474 18.5926 74.7618 19.2738V15.544H85.3858V59H74.7618V55.1408C73.9086 55.8669 72.9698 56.5319 71.9494 57.1366L71.9396 57.1424C69.0441 58.836 65.7085 59.648 62.0018 59.648C58.1518 59.648 54.6197 58.6936 51.4561 56.7633C48.2951 54.8345 45.8191 52.132 44.0296 48.711C42.2293 45.2692 41.3538 41.3919 41.3538 37.128C41.3538 32.8245 42.226 28.9613 44.0386 25.6C45.8324 22.2257 48.3135 19.5728 51.4774 17.6959L51.4837 17.6921ZM45.8018 26.544C44.1698 29.568 43.3538 33.096 43.3538 37.128C43.3538 41.112 44.1698 44.664 45.8018 47.784C47.4338 50.904 49.6658 53.328 52.4978 55.056C55.3298 56.784 58.4978 57.648 62.0018 57.648C65.4098 57.648 68.3858 56.904 70.9298 55.416C72.4219 54.5318 73.6992 53.5204 74.7618 52.3817C75.5452 51.5423 76.2118 50.6337 76.7618 49.656V57H83.3858V17.544H76.7618V24.744C76.2181 23.7612 75.5515 22.8512 74.7618 22.0142C73.7389 20.9298 72.5095 19.9678 71.0738 19.128C68.5298 17.64 65.5298 16.896 62.0738 16.896C58.5698 16.896 55.3778 17.736 52.4978 19.416C49.6658 21.096 47.4338 23.472 45.8018 26.544ZM69.0668 26.1168L69.0428 26.1026C67.35 25.095 65.474 24.584 63.3698 24.584C61.2502 24.584 59.3633 25.0786 57.6661 26.0485C55.9992 27.001 54.6448 28.3976 53.6071 30.307C52.5933 32.1723 52.0498 34.4241 52.0498 37.128C52.0498 39.8807 52.5938 42.1843 53.6114 44.1009C54.6487 46.0066 56.0059 47.4312 57.6816 48.4324C59.3748 49.3964 61.2567 49.888 63.3698 49.888C65.4866 49.888 67.3714 49.3946 69.0668 48.4273C70.7916 47.423 72.1673 45.9984 73.2001 44.1011C74.2201 42.1802 74.7618 39.899 74.7618 37.2C74.7618 34.4961 74.2183 32.2443 73.2046 30.379C72.1733 28.4816 70.8035 27.0861 69.0911 26.1304L69.0668 26.1168ZM74.9618 45.048C73.7618 47.256 72.1298 48.96 70.0658 50.16C68.0498 51.312 65.8178 51.888 63.3698 51.888C60.9218 51.888 58.6898 51.312 56.6738 50.16C54.6578 48.96 53.0498 47.256 51.8498 45.048C50.6498 42.792 50.0498 40.152 50.0498 37.128C50.0498 34.152 50.6498 31.56 51.8498 29.352C53.0498 27.144 54.6578 25.464 56.6738 24.312C58.6898 23.16 60.9218 22.584 63.3698 22.584C65.8178 22.584 68.0498 23.184 70.0658 24.384C72.1298 25.536 73.7618 27.216 74.9618 29.424C76.1618 31.632 76.7618 34.224 76.7618 37.2C76.7618 40.176 76.1618 42.792 74.9618 45.048ZM131.422 15.544L106.024 77.576H94.935L103.53 56.5668L86.8027 15.544H98.4201L109.423 43.9472L120.298 15.544H131.422ZM109.434 49.512L97.0501 17.544H89.7781L105.69 56.568L97.9141 75.576H104.682L128.442 17.544H121.674L109.434 49.512ZM194.888 4.81599V59H184.336V36.248H162.776V59H152.224V4.81599H162.776V26.848H184.336V4.81599H194.888ZM186.336 28.848H160.776V6.81599H154.224V57H160.776V34.248H186.336V57H192.888V6.81599H186.336V28.848ZM212.627 15.544V59H202.075V15.544H212.627ZM207.459 13.136C205.694 13.136 204.125 12.5022 202.877 11.2542C201.629 10.0062 200.995 8.43772 200.995 6.67199C200.995 4.90627 201.629 3.33775 202.877 2.08978C204.125 0.841814 205.694 0.207993 207.459 0.207993C209.194 0.207993 210.722 0.855133 211.917 2.1099C213.152 3.35459 213.779 4.91574 213.779 6.67199C213.779 8.42824 213.152 9.9894 211.917 11.2341C210.722 12.4889 209.194 13.136 207.459 13.136ZM210.483 9.83999C211.347 8.97599 211.779 7.91999 211.779 6.67199C211.779 5.42399 211.347 4.36799 210.483 3.50399C209.667 2.63999 208.659 2.20799 207.459 2.20799C206.211 2.20799 205.155 2.63999 204.291 3.50399C203.427 4.36799 202.995 5.42399 202.995 6.67199C202.995 7.91999 203.427 8.97599 204.291 9.83999C205.155 10.704 206.211 11.136 207.459 11.136C208.659 11.136 209.667 10.704 210.483 9.83999ZM232.334 4.81599L231.454 44.816H222.07L221.19 4.81599H232.334ZM230.29 6.81599H223.234L224.026 42.816H229.498L230.29 6.81599ZM227.05 59.432C225.284 59.432 223.716 58.7982 222.468 57.5502C221.22 56.3022 220.586 54.7337 220.586 52.968C220.586 51.2023 221.22 49.6337 222.468 48.3858C223.716 47.1378 225.284 46.504 227.05 46.504C228.785 46.504 230.313 47.1512 231.508 48.406C232.743 49.6507 233.37 51.2118 233.37 52.968C233.37 54.7243 232.743 56.2855 231.508 57.5302C230.313 58.7849 228.785 59.432 227.05 59.432ZM230.074 56.136C230.938 55.272 231.37 54.216 231.37 52.968C231.37 51.72 230.938 50.664 230.074 49.8C229.258 48.936 228.25 48.504 227.05 48.504C225.802 48.504 224.746 48.936 223.882 49.8C223.018 50.664 222.586 51.72 222.586 52.968C222.586 54.216 223.018 55.272 223.882 56.136C224.746 57 225.802 57.432 227.05 57.432C228.25 57.432 229.258 57 230.074 56.136ZM210.627 17.544H204.075V57H210.627V17.544Z" fill="black"/>
</svg>
